<mxfile host="Electron" modified="2024-03-28T18:56:22.133Z" agent="Mozilla/5.0 (Windows NT 10.0; Win64; x64) AppleWebKit/537.36 (KHTML, like Gecko) draw.io/23.0.2 Chrome/120.0.6099.109 Electron/28.1.0 Safari/537.36" etag="oj3NKJQD0_U7YEhM0MB7" version="23.0.2" type="device">
  <diagram name="Страница — 1" id="blv2jelDGGnxxXnHRa5_">
    <mxGraphModel dx="522" dy="629" grid="1" gridSize="10" guides="1" tooltips="1" connect="1" arrows="1" fold="1" page="1" pageScale="1" pageWidth="827" pageHeight="1169" math="0" shadow="0">
      <root>
        <mxCell id="0" />
        <mxCell id="1" parent="0" />
        <mxCell id="sFyq18I154vHFR2FDps--1" value="Начало" style="ellipse;whiteSpace=wrap;html=1;" vertex="1" parent="1">
          <mxGeometry x="270" y="58" width="120" height="40" as="geometry" />
        </mxCell>
        <mxCell id="sFyq18I154vHFR2FDps--2" value="auto f(x1 a, x2 b)" style="shape=process;whiteSpace=wrap;html=1;backgroundOutline=1;" vertex="1" parent="1">
          <mxGeometry x="720" y="60" width="120" height="40" as="geometry" />
        </mxCell>
        <mxCell id="sFyq18I154vHFR2FDps--3" value="" style="endArrow=classic;html=1;rounded=0;exitX=0.5;exitY=1;exitDx=0;exitDy=0;" edge="1" parent="1" source="sFyq18I154vHFR2FDps--2">
          <mxGeometry width="50" height="50" relative="1" as="geometry">
            <mxPoint x="790" y="100" as="sourcePoint" />
            <mxPoint x="780" y="140" as="targetPoint" />
          </mxGeometry>
        </mxCell>
        <mxCell id="sFyq18I154vHFR2FDps--4" value="return (a + b);}" style="ellipse;whiteSpace=wrap;html=1;" vertex="1" parent="1">
          <mxGeometry x="720" y="140" width="120" height="30" as="geometry" />
        </mxCell>
        <mxCell id="sFyq18I154vHFR2FDps--5" value="int zn(int b,int d)" style="shape=process;whiteSpace=wrap;html=1;backgroundOutline=1;" vertex="1" parent="1">
          <mxGeometry x="910" y="60" width="120" height="40" as="geometry" />
        </mxCell>
        <mxCell id="sFyq18I154vHFR2FDps--6" value="int ch(int a, int b, int c, int d)" style="shape=process;whiteSpace=wrap;html=1;backgroundOutline=1;" vertex="1" parent="1">
          <mxGeometry x="1090" y="60" width="190" height="40" as="geometry" />
        </mxCell>
        <mxCell id="sFyq18I154vHFR2FDps--7" value="" style="endArrow=classic;html=1;rounded=0;exitX=0.5;exitY=1;exitDx=0;exitDy=0;" edge="1" parent="1" source="sFyq18I154vHFR2FDps--5" target="sFyq18I154vHFR2FDps--8">
          <mxGeometry width="50" height="50" relative="1" as="geometry">
            <mxPoint x="910" y="370" as="sourcePoint" />
            <mxPoint x="970" y="150" as="targetPoint" />
          </mxGeometry>
        </mxCell>
        <mxCell id="sFyq18I154vHFR2FDps--8" value="int zn = b * d;" style="rounded=0;whiteSpace=wrap;html=1;" vertex="1" parent="1">
          <mxGeometry x="910" y="140" width="120" height="30" as="geometry" />
        </mxCell>
        <mxCell id="sFyq18I154vHFR2FDps--9" value="" style="endArrow=classic;html=1;rounded=0;exitX=0.5;exitY=1;exitDx=0;exitDy=0;" edge="1" parent="1" source="sFyq18I154vHFR2FDps--8">
          <mxGeometry width="50" height="50" relative="1" as="geometry">
            <mxPoint x="910" y="370" as="sourcePoint" />
            <mxPoint x="970" y="220" as="targetPoint" />
          </mxGeometry>
        </mxCell>
        <mxCell id="sFyq18I154vHFR2FDps--10" value="return zn;}" style="ellipse;whiteSpace=wrap;html=1;" vertex="1" parent="1">
          <mxGeometry x="910" y="220" width="120" height="30" as="geometry" />
        </mxCell>
        <mxCell id="sFyq18I154vHFR2FDps--11" value="{" style="text;html=1;align=center;verticalAlign=middle;resizable=0;points=[];autosize=1;strokeColor=none;fillColor=none;" vertex="1" parent="1">
          <mxGeometry x="755" y="98" width="30" height="30" as="geometry" />
        </mxCell>
        <mxCell id="sFyq18I154vHFR2FDps--12" value="{" style="text;html=1;align=center;verticalAlign=middle;resizable=0;points=[];autosize=1;strokeColor=none;fillColor=none;" vertex="1" parent="1">
          <mxGeometry x="945" y="98" width="30" height="30" as="geometry" />
        </mxCell>
        <mxCell id="sFyq18I154vHFR2FDps--13" value="" style="endArrow=classic;html=1;rounded=0;exitX=0.5;exitY=1;exitDx=0;exitDy=0;" edge="1" parent="1" source="sFyq18I154vHFR2FDps--6" target="sFyq18I154vHFR2FDps--14">
          <mxGeometry width="50" height="50" relative="1" as="geometry">
            <mxPoint x="1180" y="370" as="sourcePoint" />
            <mxPoint x="1185" y="140" as="targetPoint" />
          </mxGeometry>
        </mxCell>
        <mxCell id="sFyq18I154vHFR2FDps--14" value="int ch = (a * d) + (b * c);" style="rounded=0;whiteSpace=wrap;html=1;" vertex="1" parent="1">
          <mxGeometry x="1100" y="140" width="170" height="30" as="geometry" />
        </mxCell>
        <mxCell id="sFyq18I154vHFR2FDps--15" value="" style="endArrow=classic;html=1;rounded=0;exitX=0.5;exitY=1;exitDx=0;exitDy=0;" edge="1" parent="1" source="sFyq18I154vHFR2FDps--14" target="sFyq18I154vHFR2FDps--16">
          <mxGeometry width="50" height="50" relative="1" as="geometry">
            <mxPoint x="1180" y="370" as="sourcePoint" />
            <mxPoint x="1185" y="200" as="targetPoint" />
          </mxGeometry>
        </mxCell>
        <mxCell id="sFyq18I154vHFR2FDps--16" value="return ch;}" style="ellipse;whiteSpace=wrap;html=1;" vertex="1" parent="1">
          <mxGeometry x="1125" y="210" width="120" height="40" as="geometry" />
        </mxCell>
        <mxCell id="sFyq18I154vHFR2FDps--17" value="{" style="text;html=1;align=center;verticalAlign=middle;resizable=0;points=[];autosize=1;strokeColor=none;fillColor=none;" vertex="1" parent="1">
          <mxGeometry x="1155" y="108" width="30" height="30" as="geometry" />
        </mxCell>
        <mxCell id="sFyq18I154vHFR2FDps--18" value="" style="endArrow=classic;html=1;rounded=0;exitX=0.5;exitY=1;exitDx=0;exitDy=0;entryX=0.5;entryY=0;entryDx=0;entryDy=0;" edge="1" parent="1" source="sFyq18I154vHFR2FDps--1" target="sFyq18I154vHFR2FDps--26">
          <mxGeometry width="50" height="50" relative="1" as="geometry">
            <mxPoint x="430" y="370" as="sourcePoint" />
            <mxPoint x="330" y="200" as="targetPoint" />
          </mxGeometry>
        </mxCell>
        <mxCell id="sFyq18I154vHFR2FDps--21" value="" style="endArrow=none;dashed=1;html=1;rounded=0;" edge="1" parent="1">
          <mxGeometry width="50" height="50" relative="1" as="geometry">
            <mxPoint x="330" y="130" as="sourcePoint" />
            <mxPoint x="400" y="130" as="targetPoint" />
          </mxGeometry>
        </mxCell>
        <mxCell id="sFyq18I154vHFR2FDps--22" value="" style="endArrow=none;html=1;rounded=0;" edge="1" parent="1">
          <mxGeometry width="50" height="50" relative="1" as="geometry">
            <mxPoint x="400" y="190" as="sourcePoint" />
            <mxPoint x="400" y="60" as="targetPoint" />
            <Array as="points">
              <mxPoint x="400" y="130" />
            </Array>
          </mxGeometry>
        </mxCell>
        <mxCell id="sFyq18I154vHFR2FDps--23" value="" style="endArrow=none;html=1;rounded=0;" edge="1" parent="1">
          <mxGeometry width="50" height="50" relative="1" as="geometry">
            <mxPoint x="400" y="190" as="sourcePoint" />
            <mxPoint x="420" y="190" as="targetPoint" />
          </mxGeometry>
        </mxCell>
        <mxCell id="sFyq18I154vHFR2FDps--24" value="" style="endArrow=none;html=1;rounded=0;" edge="1" parent="1">
          <mxGeometry width="50" height="50" relative="1" as="geometry">
            <mxPoint x="400" y="60" as="sourcePoint" />
            <mxPoint x="430" y="60" as="targetPoint" />
          </mxGeometry>
        </mxCell>
        <mxCell id="sFyq18I154vHFR2FDps--25" value="&lt;div&gt;#include &amp;lt;iostream&amp;gt;&lt;/div&gt;&lt;div&gt;using namespace std;&lt;/div&gt;&lt;div&gt;template &amp;lt;typename x1,typename x2&amp;gt;&lt;/div&gt;&lt;div&gt;&lt;div&gt;int main()&amp;nbsp;&lt;/div&gt;&lt;div&gt;{&lt;/div&gt;&lt;div&gt;setlocale(LC_ALL, &quot;RU&quot;);&lt;span style=&quot;&quot;&gt;&lt;/span&gt;&lt;/div&gt;&lt;/div&gt;" style="text;html=1;align=left;verticalAlign=middle;resizable=0;points=[];autosize=1;strokeColor=none;fillColor=none;" vertex="1" parent="1">
          <mxGeometry x="400" y="73" width="230" height="100" as="geometry" />
        </mxCell>
        <mxCell id="sFyq18I154vHFR2FDps--26" value="cout &amp;lt;&amp;lt;&quot;Сложение десятичных дробей: &quot;&amp;lt;&amp;lt; f(0.15, 0.1)&amp;lt;&amp;lt;endl;" style="shape=parallelogram;perimeter=parallelogramPerimeter;whiteSpace=wrap;html=1;fixedSize=1;" vertex="1" parent="1">
          <mxGeometry x="110" y="230" width="440" height="30" as="geometry" />
        </mxCell>
        <mxCell id="sFyq18I154vHFR2FDps--28" value="" style="endArrow=classic;html=1;rounded=0;exitX=0.5;exitY=1;exitDx=0;exitDy=0;" edge="1" parent="1" source="sFyq18I154vHFR2FDps--26" target="sFyq18I154vHFR2FDps--29">
          <mxGeometry width="50" height="50" relative="1" as="geometry">
            <mxPoint x="270" y="370" as="sourcePoint" />
            <mxPoint x="330" y="320" as="targetPoint" />
          </mxGeometry>
        </mxCell>
        <mxCell id="sFyq18I154vHFR2FDps--29" value="cout &amp;lt;&amp;lt;&quot;Сложение обыкновенных дробей: &quot; &amp;lt;&amp;lt; ch(4,7,2,3)&amp;lt;&amp;lt;&quot;/&quot;&amp;lt;&amp;lt;zn(7,3);" style="shape=parallelogram;perimeter=parallelogramPerimeter;whiteSpace=wrap;html=1;fixedSize=1;" vertex="1" parent="1">
          <mxGeometry x="100" y="300" width="460" height="30" as="geometry" />
        </mxCell>
        <mxCell id="sFyq18I154vHFR2FDps--31" value="" style="endArrow=classic;html=1;rounded=0;exitX=0.5;exitY=1;exitDx=0;exitDy=0;" edge="1" parent="1" source="sFyq18I154vHFR2FDps--29" target="sFyq18I154vHFR2FDps--32">
          <mxGeometry width="50" height="50" relative="1" as="geometry">
            <mxPoint x="270" y="370" as="sourcePoint" />
            <mxPoint x="330" y="370" as="targetPoint" />
          </mxGeometry>
        </mxCell>
        <mxCell id="sFyq18I154vHFR2FDps--32" value="return 0;}" style="ellipse;whiteSpace=wrap;html=1;" vertex="1" parent="1">
          <mxGeometry x="270" y="350" width="120" height="30" as="geometry" />
        </mxCell>
      </root>
    </mxGraphModel>
  </diagram>
</mxfile>
